/* XPM */
static char *east[] = {
/* columns rows colors chars-per-pixel */
"64 64 112 2 ",
"   c #6D3B54",
".  c #633C5B",
"X  c #613B5C",
"o  c #643F5C",
"O  c #4F3F67",
"+  c #4B3D6B",
"@  c #5A4B5F",
"#  c #5F4E5C",
"$  c #5E575D",
"%  c #78404D",
"&  c #78424D",
"*  c #6E4657",
"=  c #65425B",
"-  c #69495A",
";  c #62515B",
":  c #62505C",
">  c #64535D",
",  c #66525C",
"<  c #69545A",
"1  c #785F51",
"2  c #6F6157",
"3  c #6A605A",
"4  c #756D57",
"5  c #7A6A54",
"6  c #4D4867",
"7  c #4D4168",
"8  c #544363",
"9  c #514366",
"0  c #564C61",
"q  c #524964",
"w  c #AB5839",
"e  c #A9583A",
"r  c #804F4E",
"t  c #80504A",
"y  c #875B4D",
"u  c #8E7C4B",
"i  c #8D794E",
"p  c #987F47",
"a  c #847D52",
"s  c #BD8639",
"d  c #BFAA3D",
"f  c #BFAE3E",
"g  c #CC9636",
"h  c #CD9D36",
"j  c #C79538",
"k  c #D4A736",
"l  c #DCAD34",
"z  c #C3B53E",
"x  c #CDB23A",
"c  c #CCBC3C",
"v  c #CDBF3D",
"b  c #D9B035",
"n  c #DCB034",
"m  c #DFB134",
"M  c #DEB234",
"N  c #DDB534",
"B  c #DEB634",
"V  c #DEB734",
"C  c #D1B138",
"Z  c #D1BE3A",
"A  c #E0BA34",
"S  c #E1BA34",
"D  c #E2BC34",
"F  c #CCC63E",
"G  c #CDC93D",
"H  c #CFCC3D",
"J  c #CFCF3E",
"K  c #D3C13A",
"L  c #DDCA38",
"P  c #CFD43F",
"I  c #DDD53A",
"U  c #D8D73C",
"Y  c #D7D93D",
"T  c #DFDF3B",
"R  c #DBDC3C",
"E  c #E9CF35",
"W  c #EACE34",
"Q  c #E5D036",
"!  c #EDD035",
"~  c #EDD234",
"^  c #EED435",
"/  c #EED635",
"(  c #EBDA36",
")  c #EBDC36",
"_  c #E9DF37",
"`  c #EEDF35",
"'  c #ECDD36",
"]  c #E2D839",
"[  c #E5D938",
"{  c #E5DB38",
"}  c #E5DE39",
"|  c #F0DA35",
" . c #F1DB35",
".. c #F1DC35",
"X. c #F1DD35",
"o. c #EFE035",
"O. c #EBE939",
"+. c #F2E135",
"@. c #8D864F",
"#. c #998C4A",
"$. c #9C904A",
"%. c #9A944C",
"&. c #8A8150",
"*. c #A08046",
"=. c #A38943",
"-. c #A09247",
";. c #AE9641",
":. c #A99F46",
">. c #AE9E45",
",. c #A29249",
"<. c #B6A742",
"1. c #C0BE41",
/* pixels */
"9 9 9 9 6 6 6 6 6 6 6 @ @ @ @ 6 @ @ t 8 @ 8 8 8 @ 8 @ @ @ @ & & & & % % % >.>.% >.=.% =.=.=.=.=.=.=.% ;.v ;.v ;.;.F F R R R R R ",
"9 9 9 9 6 6 9 6 7 6 6 6 6 6 @ t t 8 @ @ 8 8 8 8 @ 8 @ @ & & @ & & & & >.p p >.% >.=.=.>.=.;.;.=.=.=.% % % v ;.v F ;.;.F ;.R R R ",
"9 9 9 9 9 9 6 7 7 6 6 6 6 6 6 t 6 8 8 t t t t t 8 @ 8 q & q & >.& >.>.>.>.p % >.>.>.>.=.=.>.% % =.=.% % % % v v ;.F F ;.R R R F ",
"9 9 9 9 6 9 9 6 6 9 6 6 6 t t t 8 t t t t t @ 8 8 @ q 8 & & 8 & & >.>.>.% >.=.>.% >.>.% % % % ;.% ;.% % v % v v ;.F R R ;.R R R ",
"9 9 9 9 9 9 6 6 9 6 9 9 t t t t t t t t t @ @ @ 8 8 @ 8 t t q q & & >.>.>.>.>.=.=.% =.=.% =.% ;.;.;.=.v % ;.;.=.F ;.R R R R ;.R ",
"9 9 9 6 9 9 0 9 6 6 6 t 9 6 t t t t t t @ @ t t 8 @ 8 8 t q % q >.>.>.>.>.>.>.>.>.% =.% =.,.;.=.F =.% % =.=.=.=.;.;.R R R R R R ",
"0 9 9 9 9 0 9 6 6 t 6 6 9 t 9 6 t 8 0 t q t t 8 8 t 8 & q % >.>.q q >.>.>.>.>.% >.% =.% % =.F F F F F ;.;.=.;.;.;.;.;.R ;.R d R ",
"9 9 9   0 0 9 t t 6 6 t . t 6 t t t t 0 t t t t 0 t t t t t >.>.q q t t t % <.% % >.% % <.=.F F F F F =.=.;.;.;.;.;.R ;.v F U R ",
"9 9 0 6 0 6 0 9 t t 6 X . 0 6 t t t 0 0 0 t t t t q t t t t % t >.t t t t % % % % >.% <.% F ,.% ;.;.=.F F F ;.v v R v ,.H F R R ",
"0 9 6 0 0 0 ; ; 9 ; 6 . . 0 . t t 0 0 0 t t q t t t t t t t t % t t t % t >.>.>.>.% <.<.% F ;.% ;.% =.F H H H H v v U H H R d d ",
"0 ; ; 0 0 0 0 0 9 6 . . . 0 6 t 0 0 0 0 t q q t t q t t % t % t t q % t % >.% >.<.<.<.% <.,.=.=.,.F =.H H H H H U U U U U H d d ",
"0 ; 0 0 6 6 0 0 . 0 9 9 9 . 0 6 t t t 0 q t t t t t t % % % % t t t % t % % % <.% <.<.<.% ,.% % ,.F F F F F F U U F U U H H H d ",
"9 + 0 9 0 9 0 9 9 0 9 9 9 9 t 0 t t q q t t t t t t t % t % % t % t % % % G >.% % <.<.<.,.<.% F =.F F F % % F F F U H U H H H H ",
"9 + 9 9 9 6 6 9 9 9 O 9 O 9 9 X q q t t q q t 0 6 t t t % % % % % % % % % % >.G % % <.<.<.% F F F F F F F F % F v F H H H H d H ",
"9 0 + 9 9 9 9 9 9 9 9 9 O 0 9 q q q q q q q t 6 6 t 6 t t 1 % % % % % % % % % % <.P P <.<.P P F ,.F F =.% % F F H F H H H H H H ",
"9 0 9 9 6 9 9 9 $.9 9 q 0 O q q q 9 q q X 6 t 6 z 6 6 z z % % % t t <.% % % P % P <.P P P <.% ,.F P =.P % v v v F H H H F H d H ",
": 0 9 9 6 9 6 0 0 $.9 q q O q t 9 9 9 9 q z z q 6 % 6 % % % % % % % <.% % % F P <.F <.% % % F P P P % % P :.F F F F F F H H d d ",
": : 9 9 6 6 9 0 $.$.$.$.O O q 9 X 9 q <.q z % 0 6 t q q F F F F % % -.-.% u P F P <.F F O.% O.O.O.P P P P F F F F F F F H d H d ",
"O O : 9 $.q 6 <.0 q $ <.$ O t q q 5 q <.% % q q 0 0 % q t t F % -.-.z -.% % u <.P P % % % O.O.O.,.O.P O.F P P P P F F F d d d d ",
"9 9 9 @.9 $.q $ $ q <.$ O t q t q q q q 5 % % 0 q t % t F t t t -.-.-.z z #.<.#.P P F % P F F P O.P O.O.F O.O.F O.F F d d d d d ",
"9 9 9 $.@.@.$.<.$ <.$ $ $.$ q 5 5 5 q q 5 5 % % t q t t t -.t t t -.z z z F #.#.F F F P P F P P P O.P P O.O.O.O.O.O.O.F d d O.J ",
"9 9 $.q @.@.@.<.$ # # $ $.q $ q 5 q q q % 5 % <.t t t t t t t t t -.<.z z P z #.#.z F F z P F P P P O.:.O.O.:.O.R O.O.J J d d d ",
"9 9 $.+ <.@.$ q <.<.$ $ # $ $ q q q 5 q q <.% % t t t t % t t t <.t z <.<.P P P z z P O.P z P :.:.F F O.O.O.O.R O.O.O.J 1.J O.J ",
"9 9 + q + <.X <.X # # # # $ $ # # 5 q 5 5 5 <.<.% t t t t t t t <.t z <.-.<.P P <.<.P P P :.:.F :.F F :.O.O.O.O.R O.O.J d 1.d J ",
"9 9 9 q + X $ <.q # # # # # # # # # # q <.5 <.<.<.t t % % % % % f f <.<.<.z <.z P <.<.P F P F F F :.:.:.O.O.O.O.O.O.J J :.J d 1.",
"9 9 # @.+ + + <.<.# # # # q # # <.<.5 5 <.5 <.<.<.t t % f % % % z f <.f z z z z z P P P P P F T :.O.O.O.O.O.O.:.O.O.O.J :.:.1.P ",
"$.$.@.@.$.$.+ $ @.<.# # # # u q q 5 5 5 <.<.<.<.% % % % % % <.<.f z <.z P z z L z P P P F P F F T :.O.O.P O.O.O.P O.O.T P J P P ",
"$.$.$.@.$.$.@.+ $ <.<.$ # # q q u u u <.$ <.<.<.% % % <.<.% % z % P P P f P z P L z F O.O.P T T O.T T T O.O.O.O.:.O.O.P :.:.J R ",
"$.$.$.$.$.2 $ $ + + 2 f u @.q q u q u $ $ $ <.<.<.% % % % <.% <.% z P <.P P P z L P F P P P T O.L T T T T O.T P T :.1.P P 1.:.:.",
"$.$.@.@.@.# @.@.@.2 2 2 f u q q u u u u $ <.<.$ <.% % <.% <.% P % % P P P P P P P P f T Y P P T T T T T T T T P T P T P 1.T R R ",
"$.# # @.@.$ @.@.2 # # # u # # $ q u u u u u <.<.$ % % % % % <.<.% % #.% P z #.P P P F T #.L Y L T #.T T T T T P T T T 1.P R 1.R ",
"$.# # # # # # # @.@.# # u $ # u q u u u u <.<.<.<.% % <.% % % f P #.#.% P P z P P #.F #.#.O.T T T #.T P T T T T T 1.T T R T R 1.",
"@.$ $.# # # # # @.# # u u u $ u u u u u u u <.%.u % % % <.% f f f P #.P P #.P P P #.#.#.Y Y Y T P P P T T T P T T T T R T T R R ",
"$ # $ $ $ # @.# @.# # # # $ $ $ u u $ $ u u u <.<.#.% % <.<.f f f P P z z z #.#.#.#.#.Y #.Y Y Y T Z T T T #.T P 1.1.T 1.1.T R T ",
"@.# # # 4 @.# # f f # # # # $ $ u u u u <.<.#.<.u f #.<.<.f <.#.f f z z #.z #.z C #.C #.T Y Y Y Y P T T Z T 1.T 1.T 1.T T R T T ",
"# # # # # @.@.# # # # # $ $ @.$ u u u f u <.u u f f f #.#.j #.<.#.Z z f z z C #.C #.T C T #.Y Y #.Y Z 1.T T T T T R R 1.R R T T ",
"# 4 # # # @.@.$ # # # @.# # u %.%.u f u f a u %.f f <.#.#.Z <.Z f #.Z f f z P #.#.#.Y T Y Y Y P T P T 1.R R T ) P R T 1.T R R T ",
"# # a @.@.# $ @.$ # @.# f # # u u %.u a u u u u u f f <.j j Z #.#.f f Z P P C P #.C Y C T Y T T T #.T 1.T Z ) T T R T T R 1.1.R ",
"4 a a a a $ # $ @.@.# # $ u f u u w u u a u u u #.#.j j #.a Z #.k k #.f f k k k C k k Y I T T _ T T Z _ _ T T T T 1.1.T o.1.1.R ",
": a , a a , @.4 @.%.3 3 %.w u w w w f %.%.a #.j #.a a #.j j a a #.k f C P C k k C [ C C C Y T T Z T Y _ ) T T T ) _ 1.1.1.1.R 1.",
": : < , : : : : @.3 # %.w w w w w u u u u %.j j j #.a #.j j a a a a k C k k { C C C { C C T T T _ T _ T T T T 1.T ) _ o.o.1.o.1.",
", : , : : @.< @.@.%.%.w %.w w w w u w u w e a #.a #.#.#.#.j a a a a a k k a k k { C { C C C C _ T _ T _ _ _ _ _ 1.T o.o.o.o.o. .",
", , , : @.< < < &.w %.%.%.%.w w w w f w w j a #.#.a a j a Z Z a a a a k k k k [ [ [ V V C [ T l l _ _ _ _ } } _ _ _ T o.o.o.o. .",
", , : : : < < < &.< %.w %.%.%.%.%.%.w w e #.#.a a j a j Z s a a Z s k k k a k a [ V V [ V _ _ C _ _ _ _ _ T _ _ o._ _ o.o.` `  .",
": @.: : : < < < < i w %.%.%.*.*.%.e s w w #.#.Z Z j Z Z Z Z s a a Z s k k k k V V [ V V [ [ [ [ [ [ _ _ 1.1._ 1.o.1._ _ _ _ o.+.",
": : - : : : i %.i 3 %.%.%.%.&.r e %.#.#.e %.s a Z s Z Z a s Z Z Z s a a k k V C C [ [ [ V [ [ [ T 1.Q 1.1.} 1.} X.W _ _ W o.o.o.",
": : : @.: : > r &.w &.&.%.%.*.&.e %.#.j #.#.#.Z s Z s s Z s s a s a c a a V V C V V B [ n [ M M [ [ 1.+.+.1.Q o.X._ W W W o.o.o.",
"- - y : i &.&.&.&.> &.%.%.&.r e r #.#.#.#.#.#.s s s Z s s s a s a N a N N N V V x [ B [ [ [ [ M [ [ 1.1.Q 1.X.} } W W  .W o.( +.",
"- y i - - &.&.&.&.%.&.w %.r %.%.r r r j #.#.#.s s s Z j j j j j N N a V V N c N N V V V n [ [ Q M Q Q l _ Q _ _  . .W W o. .+.( ",
"y y y y i - &.&.&.&.> r r &.r r r s j j &.&.a a a a s Z a j j a s N N N V N c N V V [ B B [ l [ l M Q W l  ._ ....W  .(  .( ( +.",
"y = i = y = &.&.&.&.> r &.r r r j j j s * * s a a s a a a a j s a s V N N N N V V B B B B [ B l [ Q [ l W Q .. . .W W ..( ..W  .",
"y - - y = i = %.&.&.> &.r &.&.r r j j j * s s s * V s a a s g s s a N a c c c V B B V B B B B B Q Q Q W W W .. .W ( W ( .... ...",
"y - - - i = = = = %.&.r r r r r s s j j j s s * V V V s a j V j j j s B B B [ B B V B B V V A B B Q [ W W W / ..W W | ..| | W ..",
"= = = * i i i = %.%.r r s * e * s s j j j &.s s * V s s s s a V s V j N V B V c V [ V V V N N N Q ] W Q W / W / W | W W | | W | ",
"- = * = = = i = = r %.s s r * s s s s j * &.&.&.V V V s j &.&.V V s g j V g c c V V V h N N N N W ' ' ] ] / ] W W W | | | | | W ",
"= = * = = y = i y r r r s s s * s s s * * * &.&.g s V V b &.V V V V V V V V V V V V V V A N N A W A W W W W E D / W D | | D D W ",
"= = = y y = y y = * * s e s s * * s * * * &.g &.&.V &.s V b b V V K V V V V V m S h m h B h B h h W N ' / E W / D D ~ D ~ D ~ ~ ",
"= = = = y = = = * * i r e r e i * * * * g g g g &.g V V g g s b s s g V V V V h h S h h h B N N ' N W W E E / D D D | ~  .~ | ~ ",
"= o = = = o = * * * * * r e * * i * * g e e e g g g V s s b b g g g V V V V V V m h N h h N N N ' N N m E ~ ~ ~ D D ~ D | | ~ ~ ",
"o o = = o o o * * * i i i * i * * * g * g e g g &.e g g s V V V g K K V V S h S V S h h h ' ' m m N E ' ' m ~ D D ~ ~ ~ ~ ~ D ~ ",
"o o o o o o * = * * i i * * e * * g * g g e e g e g e s &.g s g V K g V h g h S S S h m h B B m m ' m m ~ m ~ ~ D ~ D ~ ! ~ ~ D ",
"o o o o o o o o * * * * * e e e * * g g g g g e e e e e g s g V V V V h S g g h V h h h h m B m m m m m m m ~ D D ~ ~ ^ ~ ~ ~ ~ ",
"o o o o o o * o o * * * e * * * * e g g i g i e e e e e g s g e e g g g g g V h m h h m N h h ' m m m ~ m ~ ~ ~ ~ ~ E ~ ~ ~ ~ ~ ",
"o o o o o o o o o * * * * * * * e e e e i i g g g i g s s g e e e e g g g h g V m m h h h N m m m m m m m ~ ~ ~ ~ ~ ! ~ E ~ ~ ~ "
};
