/* XPM */
static char *north[] = {
/* columns rows colors chars-per-pixel */
"64 64 52 1 ",
"  c #223015",
". c #233216",
"X c #243317",
"o c #263517",
"O c #273618",
"+ c #283819",
"@ c #293A1A",
"# c #2A3B1A",
"$ c #2B3D1B",
"% c #2C3E1C",
"& c #2A4C13",
"* c #2E401C",
"= c #31451F",
"- c #32471F",
"; c #2D5214",
": c #315816",
"> c #355F18",
", c #386519",
"< c #3C6B1B",
"1 c #3F721C",
"2 c #354A21",
"3 c #364B21",
"4 c #374D22",
"5 c #384F23",
"6 c #395024",
"7 c #3A5224",
"8 c #3C5425",
"9 c #3D5526",
"0 c #3E5727",
"q c #3F5827",
"w c #43781E",
"e c #405A28",
"r c #415C29",
"t c #425D29",
"y c #445F2A",
"u c #45602B",
"i c #46622C",
"p c #47642C",
"a c #48652D",
"s c #49672E",
"d c #4B692F",
"f c #467E20",
"g c #4A8521",
"h c #4D8B23",
"j c #519124",
"k c #549826",
"l c #589E28",
"z c #5BA429",
"x c #5FAB2B",
"c c #62B12C",
"v c #66B72E",
"b c #6ABE30",
/* pixels */
"OO$*O=***====*oo*ooo++++oOOOO*OO2%2222*%***4***@@@ OOOOO.X   XXX",
"$$$$$==*===#=****ooooo+OOoOOOOO%OO2222**2***4**4@@   OOOO@ X XXX",
"OO$**==#====***oooooo+OOo*OoOOO222O222%O2**@*4@*4@@4 @OO@ X@ XX@",
"$$$$==*===###oo#oooooOOOOoOOOOO%%2O22%%**O*2*4@@ @.@ O@O.@ @ XXX",
"$$$$ooo#*==o*o++#oooOO+O++OOOO*%%*2O2***OO4**@@4@4@@    @.@@-XXX",
"=$$=o=*=*===o#oo#ooo+++o++OOO*O%*******2**4.O4@4@@.4  O@@.@@X-X@",
"$$$*$$===oo=++##oo+#O++3O++o****2***OO2222O44O4@@4@ 4  OO@@@@@XX",
"$**=*=$=====o+ooo=+++3O3++*+o****2*OO***..O2O@@@@@@    222-@@XXX",
"$$$$=$$#=====++3+o=3+3o3o3*********42O*2*.O..@=.@@@@  @2  -@@@@@",
"$=**=*======*++**O=3+33*3+********4*O4.O.OOOO.@@@@@@ @22222@@@@@",
"==8*8========*88*8*O333+=3*+OO4*4*444**.OOO=O@@=. O@@ 222--@@@-@",
"88*=====86***88*38O3838==+*+*OO*444**4**OOOOO=O.OO@222@2-@@@@-@@",
"$*=8====666**88883838O8O*=8*+*3OOO*44*.*.OOOOO=5OOOO2@22 @@---4@",
"$$88866===e**e88833=8OOO=**O=3OOOO44***OOO.OO.OO2O77@7----2@X-XX",
"e888888*=e6=e888*883=3OO==8OOOOOOO44*4yOOOOO.5O=77@O77-7---XXXXX",
"=8e88*888=eq**88Oqq=O3833=3O6OOO44O4y*6Oy.7.O@O.557@5==7-@---X44",
"e=e55e8-88=8e*66OOOO=O==33=3OOOOO446y2y.O.7..5.5.552=2=772-2X424",
"eeeee-e##qqeeq8eeeqee===3====33O4O466yy5655..4@@2555=57@-=42uu24",
"eeee-=-##qeeqeeee6e=eee3=3O3=3p3OOO56y5y6.24..@5@775=577=7u2u224",
"eeee0e=e#eqqqee986eee=6==O=O=8pp3OOO4y6y6y52.5r@44@7557u77-2==44",
"eeeee00=eeeqe9e686=====6=6OO26686O4ppp5y6444ye.rr4747==77u=u2442",
"55555e0eeeeeq6666933e==q=33p888y68684p58yyy44yii47727===772=-224",
"ee555000eeeee6966tt66663O3p88p8888u86ppuyyeeeiiriy477ri7u==u-u4t",
"55er5e00eeee666t3336363363pp88888y688ppy5yyyerrr2i7yerirt=-tt-tt",
"050e5000ee6eee66t666p3333ttp886668ypuupy57yereeriyypee=rit2ttt2u",
"000eeeee00eeeeet666p636quut6888p868ypu557eeeierreeey4erttrtttttt",
"05000eeeeeeeeet6e666333qqtp8888868=uuyupyyyaaerr7yep4eer=trttttt",
"00606d6pp6e6ette6t63pt3ttqt8p668p8pyyyy7aayyaieeeeeei4pirrtrtttt",
"p000ddeeqp6p66p6ett3t33ptqqtqqqq=8ppyyaaayyyaayyaepeppp4trpptttt",
"p05s00d6i6pippppttp633qqpqq6q6p=ppppyayyyppyeyae77aepiiiipptpptp",
"0p0000ss6sp6ppiptppppp3qppptsdsdpppdadyaypppppayddipppuiipuppptt",
"0ppsppsddsdpppppppsp33qqpsqtssdsppppyayaaaspyyesyppppipiippsisdp",
"0pppdpdssspippippddatpqasssstssppssaay6asaappdpdddadppippidpdddd",
"pppdddpdsdsspppppdpdppsssspsdddpspss66apdayydsdsyddddipiidsddsdi",
"pppddaddsdssspppppbdpapdsssdsddddss7d6paasaasdddssbdiddppspdddii",
"sppdadsadassspddpabsadbbbdsddsss7sssd76daysddsssddsdddddpdssisid",
"ddsdddsdsassspddbbbbddpbddddbdbsb7ds7d7pppaadddsdddddddbdddsiidd",
"dddssdsdsssssspbbbbdabdbbsddddbbbbbddd7ddaaddsbbddbddddddddddddd",
"dddsddsspsssspddbdddbdddbdccbsdbbdbbddddbyddadbddbdbddbbdddbidbd",
"ddbdddddspdddbdbbdddddddcbdbsddbddbdddbdbbaddddddbbdbbbbdbddbbdd",
"ddddbdddpdbsdsdbdbdddcbbbbbdbbbbbddddddbbbbddbbdbbdbdbbddbddddbd",
"dddbbvbbdddddbbbddddddcbbbbcbbbbbddbdddbzdbbbddbbbdbdddddddddbbb",
"dbbdbbbddbbdbdbbbdddbbbbbbbbvbdddbbddbzbbzbbbdddbbbdbbbbbbbbbvvb",
"ddbxbbdbdbbbbbbbbbbdbbbzbzbbbbbdbzdddbzbzbbbbdbbbddbdbbbbdbbbbvb",
"dbvdvvbbdbbbbbbbbbbbbbbbbzvvzzvbzdbdbdbbzbbbbbbbbbddbbbbbbbbbbvv",
"bxbvbbddbdbbccjbbbbbbbbzbzzvbbbzzkbbzdbdbbzbbbbbbbbbbbbbbbbbvbvb",
"xvxvvvvbbzzbccbjjljbjzzbbjbzxzkzzkbbbvvbvbbbbbzbbbhbbbbbbblcxvbv",
"bxxvvvbbbvjxxbbcjzvzxzxbxxzxzxbzzkbkzbvbvvzbbzbbhhbzhbzllbbbvzzv",
"bbvvvlvbjxxxcxxxjfzzzzkzxjjzzzzvjzjbbjzvbvzzzbzbhhhzhzlllzbcvzll",
"zvvvlvgjbbvxcxxjjvz,zzzjjjzzjjjzvjbzbjvvbvvzzzzbzjhzzzzlllzbvlzz",
"lcgvgjggjjjjjxxxxf,,kzjjzzwjwjjjjjjbbbvvbbvvzzwjjhhhhhflllllkblz",
"clgglgxjhjjjxzxjfxkk,zxjjzzwzzjjjbvbbgffjjwwwwzhwhjhwfzflllklzzw",
"gflgjgjjgjjxxxxxxlklxjkxjxjjzj1,jhbblvfkgkhwwwzhw1jfhhlhljkkjzjj",
"gglg<1gjhhxhxhxxxxggl,,xx1wjjjj,111jvffg<hgwwwwj<1wfhhhhhfwkfjjj",
"fflgj1gjhhhhhjjxglggl,j>,jjjw111,,,bjffjjhhwwwgwhh<whhfhfhjgwh<j",
"fgfggh<h<hhhjjhjjjx,,,,,,f1w>1j1,,wjvjjj<<<fgwwj<hh<h<h<<ffwwwwf",
"gffgwg<hhhhjhjjg::,:,g,ff,w>wjj,;,,ww::wj<jfff1j<<<h<h><>:fwfwf<",
"1wwgw<wg11,gjjg::,,:,:wf,>>,>,1,wwwjjj<;;;<f>11f<hhh<w><hfwfwffw",
">1>:1<:g,,ww,g,::,:::,ww>>>;;,,&,w>wjw;;;>j;fh>>;hhhh<>f>fwf<w,w",
">>:w>,,,f,,,:;,,,,;:w1,:>f>>;&,&>>>ww:;;<;;&&>11;;><w&&&>,w&,w,,",
">>::>:::&::&;;,>;;11>,:1,&&,>g>>;;>;>w;;;;;&&&>;;&:&<>w&,&w>&,:,",
":;:;,&,&&f&,f;;::::::::::,&&g>g;g>&;;:;;;;11&:>,;;;&&>:&w:&w<:,;",
";;:;&;;&&&,&;:>>:::::,1&1>>&&&&&<<&;;;;;;;&;>;>>>;&:<;&&>>:&:&;&",
";;&&:;&&&&,&,&>;::::::&&&>>&&&;&&&<<;;;;;&&1>;>::::<;;;&&&;:;&&&"
};
