/* XPM */
static char *south[] = {
/* columns rows colors chars-per-pixel */
"64 64 220 2 ",
"   c #193505",
".  c #193705",
"X  c #1A3705",
"o  c #1A3805",
"O  c #1A3905",
"+  c #1D3D05",
"@  c #1D3E06",
"#  c #1E3F06",
"$  c #1E4106",
"%  c #1F4106",
"&  c #1E4007",
"*  c #1F4206",
"=  c #1F4306",
"-  c #204407",
";  c #214706",
":  c #214607",
">  c #234B07",
",  c #285408",
"<  c #295709",
"1  c #2A5809",
"2  c #2B5B0A",
"3  c #2C5D0A",
"4  c #2C5E0A",
"5  c #2F620B",
"6  c #30630B",
"7  c #30640B",
"8  c #30650B",
"9  c #30660B",
"0  c #31660B",
"q  c #31670B",
"w  c #31660C",
"e  c #31670C",
"r  c #32690B",
"t  c #32680C",
"y  c #326A0C",
"u  c #336A0C",
"i  c #336B0C",
"p  c #336C0C",
"a  c #336C0D",
"s  c #346C0C",
"d  c #346D0C",
"f  c #346C0D",
"g  c #356F0C",
"h  c #356E0D",
"j  c #356F0D",
"k  c #366F0D",
"l  c #36710D",
"z  c #36720D",
"x  c #37720D",
"c  c #36710F",
"v  c #38740E",
"b  c #38750E",
"n  c #38760E",
"m  c #39760E",
"M  c #39780F",
"N  c #3B790F",
"B  c #3A7A0F",
"V  c #3C7C0F",
"C  c #3C7D0F",
"Z  c #326A14",
"A  c #3A7810",
"S  c #3C7E11",
"D  c #366E25",
"F  c #3E7D30",
"G  c #377855",
"H  c #3B7F50",
"J  c #3B7A55",
"K  c #2E607D",
"L  c #356A72",
"P  c #397E78",
"I  c #447B71",
"U  c #3E8111",
"Y  c #408312",
"T  c #428811",
"R  c #438A12",
"E  c #438B12",
"W  c #489413",
"Q  c #4B9915",
"!  c #46901B",
"~  c #47911B",
"^  c #48921D",
"/  c #4C9A1E",
"(  c #4FA116",
")  c #50A417",
"_  c #418921",
"`  c #448A26",
"'  c #468D25",
"]  c #4C9927",
"[  c #4D9E29",
"{  c #4E9F2B",
"}  c #408637",
"|  c #478C30",
" . c #4A9437",
".. c #4F9D36",
"X. c #49903C",
"o. c #48923D",
"O. c #509E32",
"+. c #438A41",
"@. c #478D41",
"#. c #428B45",
"$. c #4C9541",
"%. c #509841",
"&. c #418353",
"*. c #428E66",
"=. c #275988",
"-. c #295E8B",
";. c #2A5297",
":. c #2D6A84",
">. c #296F84",
",. c #296988",
"<. c #2A688A",
"1. c #2C6C88",
"2. c #2E6A8C",
"3. c #376F80",
"4. c #33658F",
"5. c #39658F",
"6. c #31688E",
"7. c #2D7088",
"8. c #2B768A",
"9. c #2B778D",
"0. c #2A7A8C",
"q. c #2C7B8F",
"w. c #317386",
"e. c #32748B",
"r. c #2B6792",
"t. c #2F6296",
"y. c #2C6993",
"u. c #2E689C",
"i. c #306F92",
"p. c #316D95",
"a. c #31669E",
"s. c #3B6A9C",
"d. c #2E7691",
"f. c #2C7F90",
"g. c #2D7E91",
"h. c #2E7995",
"j. c #2F7A96",
"k. c #2E7F9A",
"l. c #307893",
"z. c #367B94",
"x. c #307D96",
"c. c #307E97",
"v. c #3A67A0",
"b. c #2F7FA3",
"n. c #2A8296",
"m. c #2A8397",
"M. c #2E8094",
"N. c #2D8294",
"B. c #2D8395",
"V. c #2C8396",
"C. c #2F8396",
"Z. c #2E8496",
"A. c #2F8496",
"S. c #2F8596",
"D. c #2F8697",
"F. c #2F809B",
"G. c #2F879A",
"H. c #2C849C",
"J. c #2F889B",
"K. c #2E899D",
"L. c #2F899D",
"P. c #318796",
"I. c #398495",
"U. c #30839A",
"Y. c #31829B",
"T. c #308C9E",
"R. c #2E82A3",
"E. c #2F8BA0",
"W. c #2E8DA0",
"Q. c #2F8DA0",
"!. c #2E8FA2",
"~. c #2F8DA4",
"^. c #2F8FA5",
"/. c #2F8CAC",
"(. c #3184A7",
"). c #308CA3",
"_. c #308EA2",
"`. c #318EA3",
"'. c #308CA4",
"]. c #328FA5",
"[. c #338EA7",
"{. c #3180A8",
"}. c #2F90A4",
"|. c #2F91A6",
" X c #2F93A8",
".X c #2F91AC",
"XX c #2F94AD",
"oX c #2D97AE",
"OX c #2D98AE",
"+X c #3190A3",
"@X c #3291A4",
"#X c #3191A7",
"$X c #3192A6",
"%X c #3292A6",
"&X c #3091A8",
"*X c #3291A8",
"=X c #3193A8",
"-X c #3094A9",
";X c #3095AA",
":X c #3096AC",
">X c #3198AE",
",X c #3099AE",
"<X c #3199AE",
"1X c #2E94B0",
"2X c #2F9DB3",
"3X c #2E9CB4",
"4X c #2E9EB5",
"5X c #2F9EB5",
"6X c #2C9FBA",
"7X c #309AB0",
"8X c #309CB2",
"9X c #2BA2BA",
"0X c #2BA2BB",
"qX c #2EA1B8",
"wX c #2DA2B9",
"eX c #2DA2BA",
"rX c #2CA3BC",
"tX c #2AA4BD",
"yX c #27AFCB",
"uX c #27B0CD",
/* pixels */
"5X5X%X%X,X,X,X,X,X,X,X).*X}.}.!.S.S.S.T.T.A.A.A.E.E.E.E.E.D.D.W.OXrXP.P.OXqXOX0XqXqX0X0XK.qXn.0.f.Z.}.G.G.`.G.=XG.G.G.=X=X=XuXyX",
"5X5X5X,X%X5X,X6X.X,X).*X*X*X!.Y.S.S.S.S.T.T.A.T.A.T.E.E.E.rXrXrX3X3XOXP.OXOXOXqXOXqXqXqXqXqX}.}.Z.Z.Z.}.`.=X=X=X=X=XtX=XuXtXtXuX",
"<X5X<X%X X6X X6X7X~.~.*XXXS..XXXS.!.T.XXS.S.A.A.A.E.E.rXrXrXD.M.D.P.P.OXOXOXqX0XOXOXOXOXOXf.0.0.0.0.`.`.`.G.`.N.tXN.tX+XtXtXtX9X",
"<X5X%X5X%X X X7X~.*X*X~.XXXXXXY.XXS..XS.S.S.T.C.M.M.M.E.E.M.M.M.D.M.P.OXP.P.^.OX0XqXOXOXOXOXOX0.0.0.`.0.}.`.}.G.=XG.=X=XtXtX9XuX",
" X2X<X<X&X&X&X~.~.*XY.*XY.S.Y..X.X.XA.p.p.C.T.S.A.M.g.M.3XM.rXE.OXE.^.OXP.OXOXOXOXOXk.OX4XZ.4X0.m.0.0.}.}.}.}.tXG.G.+X=X=XeXeXeX",
"<X<X2X2X&X<X&X&X XY.~.Y.Y.Y.Y..X.XA.A.C.C.S.C.M.M.M.M.M.M.g.3X3XOXOXOXOXOXOXOXOXk.OXk.0X4X4X}.n.}.m.+X0.Z.0.].G.G.G.+X=XeXN.eX9X",
"2X<X1X{.6X6X~.~.&X&X~.Y.Y.Y.Y..X.X.X.XU.U.M.C.M.T.M.M.M.g.3X3XE.E.E.^.OXOXOXm.OXOXOXk.4X0X4X}.4X}.4X}.Z.Z.}.J.+XG.+X=X=X=XN.N.eX",
"2X2X2X2X2X&X&X~.~.~.>X~.Y.Y.U..X.X.Xp.p.U.>Xp.T.C.g.M.g.3Xg.g.g.OXOXwXx.E.wX0X0Xk.0X0XOXOXOX4XZ.4XZ.4XZ.Z.Z.}.].G.N.=X=XV.V.eXeX",
"8X8X{.2X&X2X<X&X{.{.&X>X>X.X.XU.p.p.p.p..X.X.Xg.M.g.M.M.g.T.E.E.E.x.OXOXOXm.0X0X0Xk.k.k.4X4X0X+X4X4X4X=XZ.=XJ.].G.N.N.N.V.V.V.B.",
"2X{.8X{.2X&X>X&X&X>X&X>X>X>X>XU.>X>X_.U.p.p.>Xp.T.g.g.T.T.E.E.E.E.E.x.0XwXwXm.OXOXOXk.+X#X].].Z.4X4XZ.=Xk.Z.].].G.N.N.N.V.9XV.eX",
"2X|.|.2X{.>X&X&X&X{.>X>X~.>X>X_.U.p.p.p.>X.Xp.g.g.g.g.g.g.g.P.wXE.j.E.OXOXOX0Xx.k.OXk.N.k.N.#XZ.4Xk.=X[.Z.].].].].:X:XN.V.V.B.V.",
"/.2XoX1X|.6X6X6X{.{.>X>X>X>Xp.U.U.U.>XU.U.U..Xp.g.x.g.h.h.g.j.P.j.j.OXOXOXx.x.x.0Xk.+X+X#XN.N.#X8.k.'.k.[.@X@XB.:XV.8X8XV.B.V.B.",
"/.2X2X>X|.1X/.>X{.{.|.>X>X>X_.U.>Xp.>XU.U.A.p.x.p.x.h.h.g.h.E.wXx.x.x.0XOXOXOXx.OXk.k.N.N.].u.].'.'.'.'.'.[.q.:X:X+XV.8X8X>.B.B.",
"/./.oXoX2X>XoX/.|.|.>X>X|.U.>Xc.U.p.U.U.U.p.p.c.g.h.x.h.h.j.E.h.j.h.x.x.x.k.OXx.k.k.k.k.k.k.k.u.'.'.].+X+X@X].B.+X+XB.8X8X:X>.B.",
"/.oX|.oX|.1XoX|.|.|.>XU.p.U.>XU.U.p.>Xp.p.c.-Xh.c.h.x.x.h.=.x.wXh.wXx.x.h.x.x.k.k.k.k.k.k.k.k.8.uX'.].'.'.q.q.N.N.+X>.B.V.B.:XB.",
"%X(.(.{.e.oXe.oX>X|.>X>XU.U.d.U.p.p.p.p.p.c.-X-X-Xc.x.h.h.x.=.j.4Xh.h.h.k.h.x.k.k.-.k.k.].].u.].].V.'.uX].q.N.N.:X+XV.>.V.B.:X:X",
"(.(.1X|.e.H.e.oX|.oX|.|.|.U.|.p.U.p.c.p.p.c.c.c.g.=.=.$X$X$X4Xj.4X4Xh.l.x.h.k.k.k.-.k.-.k.V.].u.uXQ.].uX+Xq.8.Q.Q.V.N.V.L.V.V.:X",
"H./.(.H.H.oX|.oXoXoX|.U.U.U.U.U.d.p.c.c.c.c.c.c.=.x.$X$X7.h.h.wXx.l.h.x.h.x.x.k.k.k.-.].u.].k.V.Q.V.uXV.q.N.q.Q.V.N.L.N.N.L.V.:X",
"%XH.e.H.e.oXe.oXoXI.|.U.U.U.U.U.=.p.d.c.c.g.g.=.g.h.7.$X7.=.h.h.4Xl.h.l.x.x.i.x.<.<.k.u.k.u.u.F.V.F.r.-.Q.Q.q.V.+X8.L.N.L.L.L.N.",
"z.z.e.H.H.(.(.(.v.v.I.U.t.d.U.v.d.=.p.c.p.c.c.=.=.$X7.7.=.{ h.h.l.l.l.k.<.$X<.<.<.<.u.1.1.-.k.-.V.-.uXQ.r.r.q.q.N.V.8.L.L.L.N.L.",
"z.e.H.z.z.;Xz.(.t.t.U.v.t.U.U.v.c.v.p.d.p.=.=.=.=.7.=.=.h.7.h.h.x.$X$Xl.<.k.k.k.k.<.k.1.u.k.-.-.-.-.-.Q.#.>.8.q.+X#.#.#.L.N.L.L.",
"z.z.z.z.H.z.z.t.t.t.t.U.v.v.v.c.c.c.c.c.=.{ c.=.=.=.7.$X=.$X$X{ h.$X$X$X4.4.<.k.i.:.i.1.-.-.1.-.-.-.-.-.k.q.k.N.;.#.;.N.#.N.L.N.",
"z.z.z.;X;XoX(.oX;Xt.&.v.&.v.v.v.v.c.v.{ v.{ c.=.=.=.=.=.=.=.$Xi.$X$X$X1.4.$X4.9.4.:.1.k.-.9.-.-.Q.-.y.y.k.>.>.k.q.;.k.N.#.L.L.N.",
"z.z.z.z.z.a.oXoX3.t.t.&.&.v.v.v.v.{ { c.{ =.{ 7.=.=.=.$X$X$X{ h.{ $Xi.1.i.$X4.:.:.9.:.1.-.H H H H H H -.>.k.k.>.;.;.#.G G G #.N.",
"z.z.%.z.a.R.oXa.R.3.v.&.&.v.&.v.v.{ { { c.{ { c.{ { =.$X$X=.i.h.{ h.7.$Xi.4.4.4.4.:.:.:.9.4.-.H H H -.-.-.k.k.#.k.>.;.#.#.G G G ",
"z.z.a.%.z.R.&.oX&.z.3.&.v.v.&.v.{ { { 6.6.d.7.{ d.{ =.d.s.7.i.$X7.h.7.i.7.7.4.:.4.:.4.4.:.-.H H #.-.H -.-.k.#.;.k.;.;.G } G #.#.",
"z.5.z.z.z.z.R.&.&.z.v.&.*.&.v.v.v.t.6.{ { { d.7.{ ~ $X$X$X$Xi.7.7.:.7.7.:.:.:.:.4.:.9.4.9.4.:.,.,.#.#.-.-.k.k.k.k.G G } G G } G ",
"5.5.5.5.5.5.&.z.3.3.*.z.v.v.v.&.v.s.t.{ d.d.d.~ { 7.~ $X$X$X$X$X$X7.7.7.7.4.4.4.4.:.K K K :.K ,.;.#.-.,.-.;.;.#.k.;.;.G ;.} G G ",
"z.5.5.5.5.5.&.b.z.z.z.3.*.*.s.v.s.{ s.{ d.{ { { ~ 7.7.7.$X:.$X:.P :.@.:.@.:.4.4.@.4.4.#.K :.,.,.;.;.,.;.;.;.;.>.,.,.;.;.} } } } ",
"5.5.z.2.5.&.z.&.3.3.3.z.3.v.s.s.s.s.s.{ { { s.~ ~ ~ s.s.o.o.$X:.$XP @.@.:.7.@.7.4.4.#.K 9.K ;.K K ;.,.,.9.,.9.;.;.,.[ [ } } } G ",
"z.5.5.5.z.5.&.3.3.3.3.3.3.s.3.3.s.s.s.s.s.{ s.~ ~ ~ s.s.s.o.o.:.~ ~ ~ 7.@.7.@.@.9.@.#.K K K ;.;.K K ,.;.;.;.[ [ >.( [ } G } G G ",
"5.%.5.5.2.5.2.3.3.......3.3.3.3.3.3.s.3.s.{ s.s.~ ~ $X$Xs.o.o.s.s.s.~ ~ @.@.7.@.@.#.9.9.K K K K ;.K K ,.,.,.9.;.( >.[ G [ } G G ",
"5.5.5.5.5.3.&.3.3.3.3.3.3.3.3.3.s.3.s.3.s.s.s.o.~ s.s.s.s.s.s.s.~ ~ @.@.@.@.@.@.7.K 9.K K K K ;.;.K 9.K 9.,.;.;.[ ( >.[ G [ G A ",
"5.5.5.5.2.5.5.3.3.3...3.3.3.3.3.3.{ 3.s.s.s.s.{ s.@.@.s.@.s.s.s.s.@.@.@.@.@.@.K 9.L K K ;.9.K K K K K 9.;.H H [ >.;.G >.>.( ( ( ",
"......5.5.5.3.3.3.3.3.3.3.3.! 3.3.3.s.s.s.~ ~ s.s.@.@.o.s.~ ~ s.@.@.@.@.X.@.L @.9.K L ;.K K K K K K 9.K 9.;.;.;.( ( U ( U ( G G ",
"5...5...5.5.5.3.3.3.3.3.s.3.s.3.{ 3.s.{ ~ s.{ s.s.s.o.o.s.o.s.o.@.Z @.X.@.X.X.X.L 9.K ;.K :.K K ;.K ;.9.;.K ( ;.>.( ( U U U ( A ",
"..5...| | 5.5.3.3.3.3.3.s.3.s.{ { s.3.s.{ s.{ P P @.s.@.@.o.~ ~ Z @.@.:.@.X.X.9.9.9.9.9.:.K 9.K 9.;.+.F F K K F F ( U U U U A U ",
"..5.| 5.5.) I 3.3.3.I 3.3.{ s.! ! { s.3.{ s.{ P P o.@.s.o.~ @.o.o.Z @.~ Z X.K L L K K K :.K :.9.;.+.K F F ( F F f ( ( ( ( ( R ( ",
") M | ) I 5.$...5...3.I I 3.! { s.s.! { ! { s.s.o.o.o.@.s.@.s.~ Z @.X.J :.Z Z :.9.Z :.9 9.9.:.+.F 9 F K 9 ( F F ( ( f R R U U U ",
"| $.M ] I ] 5.I ..5.I i I s.s.{ ! ! ! { ! O.~ ~ s.o.o.o.Z s.Z Z Z Z Z J :.L v 9.9.:.c c 9 9.9 +.+.9 9 S S S S F F F ( f R R U U ",
"$.$.| ] ) $.$.I ] ] I i I p ! s.p { { O.O.I 4 ~ s.s.o.D Z s.D D @.@.J J J J :.:.:.:.c :.9.9 9.+.+.F S F v S S S F Y f R R ' ' U ",
"$.| | ] M $...$. .] I I s.! ! p p p ! ! ! ! ! 4 4 D s.4 D D ~ D J @.v J J v v :.:.:.:.c c c 9 9 9 F 9 F v F Y F Y >.R Y R U R ' ",
" .| $.] $.] $.M I I I I k p i p ! p p ! ! ! ! 4 4 4 4 J D J J D @.J J 3 J _ Z v Z v ;.v v 9 < 9 a 9 v 9 c c Y v F R ' F R R ( ( ",
"$.$.M ] M $.M I I I I I I I i p b ! v ^ ! ! ! 4 4 4 4 J D D D D J D J 3 J Z v Z ;.v v v 4.< 9 Y Y 9 9 c c F F F Y R v F F R F ' ",
" . .$.M M M I I ) ......I I I k b I ! ! ^ ! ^ ^ ~ 4 4 D D D J J J 3 Z 3 v v v Z Z v v a a v < Y c c c Y c 9 9 F v v F F ' F ' ' ",
" .W M  .W M )  .) I I I I i I k v v ^ ^ ^ ! w.! ~ D D D o.J D J J _ _ v v v v v v v v 4.v a v a Y c Y F 9 y y Y F Y Y F F F F ( ",
" .W 5 I M I ) I E Q I I C C C i b i C ! ! b b b B D 4 o.o.D D D 3 s.3 3 3 v v v v v ;.v a v v @ v c Y Y 9 Y c Y Y Y ( F : F F F ",
"5 5 5 I E T T I I I I I I i i C v i v v ! b b b b b 4 D o.D J 3 ;.3 3 3 3 v v v v v ;.;.v v v ;.Y Y Y Y c @ @ y y y y f F F f f ",
"5  .I I E W T I E I I I I I i i v i B v C b B B d b b D D o.o.s.3 s.3 3 b v v a a v ;.v ;.v v Y Y Y Y Y 2 Y Y y y y f : F : f f ",
"5 ..5 E 5 I I I I I I I I I I i C i v C C B b b ! B 4 b b b J 3 3 s.3 3 3 3 3 a a v v v ;.;.;.= c Y Y c Y F y y @ Y f : f f : : ",
"5 ..W W T T T T i i I Q Q Q i i v v v C n C C B B B b b B B s.B 3 3 3 3 3 i v v a i v v v v y y Y Y 2 F F F @ y y f Y f : f : : ",
"5 5 W W W E T I i Q i Q i i v i i v C n d d C B B B B X.D X.3 s.3 3 3 3 3 b a i v i v i o # y 2 Y @ Y 2 F 2 @ @ @ @ f f : O : f ",
"5 5 5 5 W m ` ` ` I I ` Q Q v i v C C i i 8 C 8 B C b D B 3 B B B 3 3 3 i i a = a i i = = v y 2 2 2 y y y @ 2 @ @ @ f O @ : O f ",
"5 5 5 / 5 5 W T ` ` ` ` ` Q v T C v T t n i 8 B l B C C C X.b 3 3 3 = 3 = 3 a a a a = y = v o 2 y 2 @ 2 2 2 @ @ @ @ @ . f O O O ",
"V N 5 5 5 5 5 5 ` ` Q Q T T Q i i v v 8 v i 8 B B B C 3 C b C 3 3 3 3 3 = 3 3 3 3 - = = # # = 2 y 2 2 y 2 2 O @ 2 @ @ O @ . O O ",
"N m m N ` 5 5 T ` Q T T Q i T 9 x r x r i i B 8 B C C b d 3 3 b g 3 3 3 3 3 3 3 3 3 = y y - # y # 2 2 2 @ 2 @ 2 @ O @ @ O . O O ",
"T N V 5 5 5 5 T ` T ` i ` ` i x 9 h x 8 r C C C u B B b 3 C 3 b = g 3 3 a 3 = i - 3 = = y + = y # # X 2 2 2 X X @ @ @ O O . O O ",
"N w W w 5 ` 5 T T T 9 T u i n t i 9 r C C i i u u 8 d 3 3 j = j = = 3 = = = = i , , = = # # # # y y X o o o 2 X . @ @ O O O O O ",
"e 5 e W 5 ` 7 T j T T ` u T 9 t n T t C t 8 r 8 C 8 l j 3 g g g g g i = g i i = i = & - = X X y # o o 2   o 2 . . @ . @ O @ . O ",
"e e e 5 e 5 7 T l 5 T T u u u n h 9 r C r 8 8 C u u u r r q q j g q i i g # , g = = - * - X - o $ o o o   o o o . @ @ . @ @ @ O ",
"e e e w 7 7 j l T T T T 7 h s 9 T T C r C r r u 8 j l 0 j z q q j g , g g i g = * * * - * % X y & o # o $ o o . . @ . @ @ . . O ",
"5 5 e e j 5 7 7 j 5 j T 9 u h s h 9 C C C 9 u u j z 0 l l j j j > * g ; * # % % % * * & & % % & X o $ $ # X @ X O X X X @ O @ @ ",
"5 5 5 5 5 7 7 5 j j 7 u j u u u s 1 s 1 C r 1 j 0 8 j j j z > g 3 > q g g g % % % o % % & % % % # # # X $ X X X X X @ X @ O @ O ",
"6 5 5 5 5 5 7 5 5 u 5 u j u u h h s 1 9 1 1 8 j j j j j 0 j j 3 > ; * g g * % % - % % % % & & $ # # # # # # X X @ @ @ O O O @ O "
};
