/* XPM */
static char *weast[] = {
/* columns rows colors chars-per-pixel */
"64 64 112 2 ",
"   c #A200FF",
".  c #A303FE",
"X  c #A202FF",
"o  c #A303FF",
"O  c #A60AFE",
"+  c #A60BFE",
"@  c #AA11FE",
"#  c #AA15FE",
"$  c #AB1BFF",
"%  c #B22BFE",
"&  c #B430FE",
"*  c #B535FF",
"=  c #B736FE",
"-  c #B83AFE",
";  c #BA3BFE",
":  c #BB44FE",
">  c #BD46FE",
",  c #BD4BFF",
"<  c #C65FFE",
"1  c #D07EFE",
"2  c #D386FE",
"3  c #DA8DFD",
"4  c #D690FF",
"5  c #D997FF",
"6  c #DB9EFF",
"7  c #DD9DFE",
"8  c #DC9EFE",
"9  c #E09DFD",
"0  c #DFA6FE",
"q  c #DFA7FE",
"w  c #DEA6FF",
"e  c #DFA9FF",
"r  c #E1AEFF",
"t  c #E2AFFE",
"y  c #E4B7FF",
"u  c #E8B6FD",
"i  c #E5B8FF",
"p  c #E5B9FF",
"a  c #E5BAFF",
"s  c #E6BBFF",
"d  c #E6BCFF",
"f  c #E6BDFF",
"g  c #E8C0FF",
"h  c #E8C1FF",
"j  c #E8C2FF",
"k  c #E8C3FF",
"l  c #E9C3FF",
"z  c #E9C5FF",
"x  c #EAC6FF",
"c  c #EAC8FF",
"v  c #EBC9FF",
"b  c #EBCAFF",
"n  c #ECCBFF",
"m  c #EDCDFE",
"M  c #ECCCFF",
"N  c #ECCDFF",
"B  c #EDCFFF",
"V  c #EED0FF",
"C  c #EED1FF",
"Z  c #EED2FF",
"A  c #EED3FF",
"S  c #EFD4FF",
"D  c #EFD5FF",
"F  c #EFD6FF",
"G  c #F0D6FF",
"H  c #F0D8FF",
"J  c #F1D8FF",
"K  c #F1D9FF",
"L  c #F1DAFF",
"P  c #F2DCFE",
"I  c #F2DCFF",
"U  c #F3DEFF",
"Y  c #F3DFFF",
"T  c #F3E0FF",
"R  c #F3E1FF",
"E  c #F4E1FF",
"W  c #F4E2FF",
"Q  c #F5E4FF",
"!  c #F5E5FF",
"~  c #F5E6FF",
"^  c #F6E6FF",
"/  c #F6E7FF",
"(  c #F6E8FF",
")  c #F6E9FF",
"_  c #F7EAFF",
"`  c #F7EBFF",
"'  c #F7ECFF",
"]  c #F8EBFE",
"[  c #F8ECFE",
"{  c #F8EDFE",
"}  c #F8ECFF",
"|  c #F8EDFF",
" . c #F9EEFF",
".. c #F9F0FF",
"X. c #FAF0FE",
"o. c #FAF1FF",
"O. c #FAF3FE",
"+. c #FAF2FF",
"@. c #FAF3FF",
"#. c #FBF4FF",
"$. c #FBF6FF",
"%. c #FCF7FF",
"&. c #FCF8FF",
"*. c #FCF9FF",
"=. c #FDFAFE",
"-. c #FDFBFE",
";. c #FDFAFF",
":. c #FDFBFF",
">. c #FDFCFF",
",. c #FEFDFF",
"<. c #FEFEFF",
"1. c white",
/* pixels */
"1.1.1.1.1.1.1.1.1.] ] 1.1.1.1.1.1.1.1.1.1.1.1.&.&.&.1.&.$.$.1.1.1.$.1.1.1.1.-.1.=.=.1.=.=.=.1.1.1.1.1.;.$.$.%.>.>.1.1.1.1.1.1.1.",
"1.] 1.1.1.1.1.1.1.1.1.1.1.1.1.1.1.#.1.1.1.1.1.1.1.&.1.$.1.$.$.1.1.1.1.1.1.1.=.E E =.=.1.=.1.1.1.1.1.,.*.#.$.*.,.,.1.1.1.1.1.1.1.",
"] ] ] 1.1.1.1.1.] ] 1.1.1.1.1.1.#.1.1.1.1.1.] &.] &.1.1.1.$.1.1.1.1.1.q 1.- =.E =.=.=.=.1.1.1.1.1.1.,.*.$.%.>.1.1.1.1.1.1.1.1.1.",
"1.] 1.1.1.1.1.1.1.1.1.1.1.1.1.1.1.1.1.1.1.1.&.&.&.1.1.1.^ $.$.1.1.q q 1.^ ^ - =.=.E =.1.1.1.1.1.1.1.,.;.*.;.,.,.,.,.1.1.1.1.1.1.",
"1.1.1.1.1.1.1.] 1.1.1.] 1.1.1.1.1.1.1.1.1.&.] ] 1.1.1.1.^ 1.^ ^ 1.$.^ ^ 1.1.1.=.=.1.=.=.1.1.1.1.1.1.1.+.+.+.@.+.+.,.1.1.<.<.<.1.",
"1.1.1.1.1.1.1.1.] 1.1.1.1.] ] 1.1.1.1.1.1.&.&.&.1.1.1.1.1.=.=.$.1.=.1.&.$.&.-.=.=.=.1.1.1./ 1.1.1.1.1.@./ / / +.+.,.1.<.o.o.+.1.",
"1.1.1.1.1.1.1.1.1.1.1.1.] 1.1.1.1.1.1.1.1.1.1.1.&.&.1.=.#.=.1.^ 1.^ =.&.&.&.$.=.- =.1.1.1.1.1.1.1.1.1./ I I I I I @.:. .G L ^ <.",
"1.1.1.1.1.1.1.1.1.1.1.1.1.1.1.1.] ] 1.1.1.] #.] 1.1.] #.=.$.^ ^ 1.=.&.=.=.1.- - =.=.1.1.$./ $.8 / / &./ I I V B K ..&.} C F Y $.",
"1.1.1.1.1.1.1.1.1.1.1.1.1.] 1.] ] ] 1.#.#.1.] 1.1.1.] 1.$.$.^ =.^ 8 1.8 1.^ 1.1.=.=.=.+.+.1.1.1.E 1.E E W J V i j H ( ( D L Y _ ",
"1.1.1.1.1.1.1.1.1.1.] ] ] ] ] 1.1.] 1.] #.] 1.] ] $.^ $.1.1.^ 1.=.=.1.=.8 ^ 1.&.1.1.+.1.=.1.~ ~ E +.E E | T N d x C H / ` ' W Y ",
"1.1.1.1.1.1.1.1.1.1.] ] ] ] 1.] ] ] ] ] #.] 1.1.1.1.$.1.$.1.=.=.=.=.^ =.1.=.1.=.^ =.+.1.~ 1.1.8 8 1.| | &.~ I j a p n Q } ) Y I ",
"1.1.1.1.1.1.1.1.] 1.] ] ] ] ] 1.1.] ] ] ] : #.$.#.$.$.$.1.$.1.=.=.=.=.=.1.=.&.&.&.=.B =.=.1.~ +.+.~ ~ e &.~ L h r r g G ) ) ~ ~ ",
"1.1.1.1.1.1.1.1.1.1.] ] 1.] ] ] ] ] #.#.: : : ] #.$.$.#.1.^ 1.=.=.^ ^ ^ =.=.=.&.=.B B =.B ~ ~ =.=.| ~ ~ ~ ~ / k e 6 p A W ! ! ) ",
"1.1.1.1.1.1.1.1.1.1.] ] ] ] ] ] ] #.] #.#.: : 1.: $.$.$.$.=.=.$.=.1.^ ^ ^ ^ ^ =.&.$.R R B B 8 j =.+.=./ e / / k e 5 w f S W ) ..",
"1.1.1.1.1.1.1.1.1.1.1.] ] ] ] ] ] ] ] ] #.1.: 1.: #.#.#.#.$.1.#.=.=.- - ^ ^ 8 $.R =.R &.=.e =.=.+.~ e ~ e / e e e y s c S U W ! ",
"1.1.1.1.1.1.1.-.1.] -.1.] 1.] 1.] ] 1.1.#.1.1.: $.$.$.#.$.#.$.#.#.=.- 1.- 1.^ - R R R &.&.=.e =.=.e e / / e e / / B l B S I Y W ",
"1.1.1.1.1.-.1.1.1.1.1.] ] 1.1.1.#.] ] 1.1.1.$.$.1.$.: $.8 8 8 #.- =.: - ^ &.^ &.e &.R R 8 1.B =.=.=.e / / / / / / B v F L I I I ",
"1.1.1.1.1.1.1.-.1.-.1.$.] 1.] $.] 1.1.] 1.1.1.$.: ] $.8 8 8 #.#.- - - 1.1.: : - - &.2 - &.B e &.e =./ / j / = B / B v b H K L I ",
"1.1.1.1.1.1.1.1.] 1.1.1.] ] 1.] 1.1.1.] 0 0 0 0 $.: 8 : 8 8 : : 1.1.: : : : R - 2 : 2 R R &.e e   j j j / = = = B c b c c v Z L ",
"1.1.1.1.1.1.1.-.] 1.] ] 1.] $.] 1.1.[ 1.0 1.0 ] ] $.0 8 8 8 : $.1.1.: 1.: : : : - - 2 - - - e e e e e / = = / / c c D D D d M D ",
"1.1.1.1.1.1.1.=.1.1.1.] 1.1.P $.P 1.1.1.] 1.1.] 8 0 0 : 0 0 - - - $.: : : : : - 2 - R 2 2   e - j j e e / j = = e c j D d d D v ",
"1.1.1.1.O.1.O.1.1.=.1.] 1.] P P P 1.1.1.1.0 0 : $.$.: $.8 : - : & - - - : - - 2 - =.- 2 R R 2 j j   e e ~ j = = c j j j D M c v ",
"1.1.1.1.1.=.1.1.=.1.1.1.1.1.1.1.P P 1.0 0 $.$.: $.0 0 0 8 8 - 0 0 : $.: $.- - =.: : =.2 2 2 2   j j j = = = j D D j j j j v v v ",
"1.1.1.1.-.-.=.=.1.=.1.1.1.1.1.1.=.[ 1.0 1.0 0 $.0 0 : : : : 0 0 $.- $.8 8 8 - : & & =.2 / j / j   j   j / j ~ j j j $ j j z v v ",
"1.1.1.1.1.=.1.1.1.=.1.-.1.1.=.1.1.1.1.0 1.1.2 $.: : : 0 : : 0 $.: $.- - 8 8 & & & j 2 j j / j j j j / j = = = = D $ $ $ j j z v ",
"1.1.1.-.1.O.-.=.1.1.=.-.=.1.1.1.P t 1.1.1.1.0 2 $.: 0 : 0 : $.: $.$.- 8 - 8 = 8 j =.j & / j / j / j j j j j = = = = $ j j z j z ",
"1.1.1.O.O.1.1.=.1.=.1.-.1.P -.P -.t 1.t $.$.1.$.2 t t 0 : 0 & $.: : $.8 8 = 8 8 & & & j & = = / j j j - j j j , m , j j j j z z ",
"1.1.O.O.O.1.-.-.-.-.=.-.-.P P -.-.-.-.t 0 2 2 0 2 1.0 : 0 & 0 & & & & 8 = 8 8 8 & & & j j & & j = = j j j - * m , , j j j j z z ",
"1.1.1.1.O.O.-.=.=.[ [ P P P -.P P t 1.t 8 1.1.t 0 1.t : : - & & 0 2 $.= = = 8 = 8 = & j j & j / = = = j m j j m m , , j j L z z ",
"=.1.1.=.-.O.-.[ -.P P -.-.P P P t -.-.t t $.1.-.2 1.& : & t 0 : 2 2 & 8 8 8 8 j 8 = = & j   / = = = m j m m m m # , , m , L 4 z ",
"=.=.=.-.O.[ [ =.1.-.=.-.P P 1.-.-.-.-.t t 1.-.-.t : & : : t - 0 1 0 - & 8 & & = 8 & &   = =   j = m m = * * m * * # m = , z 4 z ",
"=.-.-.-.[ =.[ [ [ 1.P -.-.-.P P [ 1.1.t -.-.1.2 & t & : : : : 1 : 1 1 & & & &   & & &   &   =   j m m   = m m m * # = * , , z , ",
"-.1.1.1.-.[ [ [ 1.[ P [ -.u =.=.-.[ t -.1 -.-.1.t t 2 t 2 : t t 1 1 1 - 2   & = & =             8 m = 8 m = m m = * = = # z , , ",
"-.=.=.[ [ 1.1.[ P P -.[ [ u [ =.u -.-.-.1.t t 1.1.1.& & 1 t & 0 1 1 {   & - & & & = = &           8 8 = m , = * * * # # # # , , ",
"=.1.=.1.1.[ [ [ [ 1.[ -.[ -.[ u -.1.-.1.1.1.1.t 1.2 t 1 1 t 1 1 :   1 2     {   = = 8 &   &       8   , j j * = * = * # * * , , ",
"=.=.=.=.=.=.[ P [ P P u -.-.[ u -.u -.-.=.& t t t & & & 1 1 & 1 0 2     2 2   - & & 8     & 8 = 8     = j m * * = * = = * * * , ",
"=.=.=.=.1.=.=.[ [ =.u u u [ u =.-.-.u 1.-.1.& =.t 2 t & 2 & & & 1 1 2 2 & - -     &     = & 8 8 8     = m     , # # #   = , , , ",
"=.=.=.=.=.[ =.=.=.=.u u u u =.t [ u u -.=.=.& 1.t t t & & 2 & & & - 2 -   =   &   & = =   = = &         # #   # # # # # * * , * ",
"=.=.=.7 =.=.=.=.=.=.u u u =.=.u u 1.=.1.1.=.t t 2 t & 2 & & & & & & & 2 & = & & & &   =   = =   =   = # # # m , # # , # * , , * ",
"=.7 -.7 =.=.=.=.=.=.=.=.=.=.t t 1.1.u t =.=.: : 1.2 2 2 2 2 & & & & 2 2 2   = &   &   &   =   =         # # # m # # , , # * , , ",
"=.=.7 =.=.=.=.=.u =.u =.=.u =.u t =.X.X.u X.: : : 1.X.& & & & & & & 2 - - & & & & & & =       = =   =     # ,     , , , # * $ * ",
"9 =.=.=.=.=.=.=.=.u u =.=.=.=.=.1.t t t t t : t : : 1.1.& & & & 2 = & & = & = & = &     &                       , , , , $ $ * * ",
"=.9 =.=.=.=.=.3 t =.=.=.u =.t t t =.t : X.t t X.1.X.: & & : &   & = 2 - & & & & & &                           ,     , ,   $ $ * ",
"7 7 7 9 =.3 3 3 7 t =.t t =.t =.=.t t X.X.: : t : 1.X.X.2 & & & 2 & & 2 & &     2 & &             = =       ,       ,     $ $ $ ",
"9 9 7 =.7 7 =.9 9 =.7 t t 7 =.7 : : X.X.t : : t t : X.& 2 2 2 2 2 2   : & & 2   & & & &     & &                             $ $ ",
"9 7 7 9 7 3 7 ; u ; t t t 7 =.t : X.t X.t X.o t t : t X.: t 2 2 : 2     &   & & & & &                               $ $ $ $ $ $ ",
"9 7 =.9 7 3 3 3 =.=.t t t t t t t t : o t o t t t t t O O t t 2 2         :     & &                                 $ $ $ $ $ $ ",
"7 7 7 9 7 3 3 3 7 =.t o t u t t : t t t X.X.t t t o : t t t t   t   2   2 2   :                                     $ $ $ $ $ $ ",
"7 7 9 3 3 3 3 3 =.< u 7 o o o o t t o o X.t X.& : : t t O 2 t     O 2 2     :         & &                             $ $   $ $ ",
"7 9 7 3 3 3 3 3 < 3 7 < 7 < < o o t t t o o < : : : o O O 2 :     : 2 2                   &                     $ $ $       $ $ ",
"9 7 7 3 7 7 7 3 3 3 < < < o o o t o t 7 O < : t t : O t t 2 :       o                                             $           $ ",
"7 7 7 7 u u 3 ; u 9 9 < < < < < < 7 % 7 O O < : : : t O O O :   : O   2 2   >                                   $ $ $     $ $ $ ",
"3 7 7 7 u 3 3 ; ; < < < < O 7 7 7 7 7 O o o : O : : : O   : O           O O > >                                   $     $ $     ",
"3 7 7 7 7 3 3 u < < < < < < < 7 < o O O O O O O : : : O O O       O 2 O O o >                                                 $ ",
"3 ; 7 7 7 7 7 3 3 3 < < O 3 < < % % % O O O O O O : : O o   O       O o                                                         ",
"; 3 7 7 3 7 3 3 3 3 3 < O 3 + o % % O O O O O     : O o o             o >   > >                                                 ",
"; ; 7 3 3 3 3 3 3 3 < 3 < o + + + % % O O O O : O o : O   o             >   >           .                                       ",
"; 3 7 ; 3 3 3 ; 3 3 < 3 o O < + + O % O O : : O o : :     o             > >             >                                       ",
"3 ; ; ; 3 ; 3 7 7 ; < ; o ; + + % o o O o : O o o     :   >         >   > > > > >   .   > >                                     ",
"3 3 ; 7 3 7 7 7 + 7 ; 3 + + ; + + o O o o o o o       O     >           > >   > >     >                                         ",
"; ; 3 ; 7 3 7 7 + ; ; ; ; + o + O % O % O o O o     o O O >             > > > > > >   >   >                                     ",
"; 3 ; ; ; ; ; 7 + ; ; ; ; + + o ; % o o o o o   o       O O >   >           > > > > >     >                                     ",
"; + ; ; ; ; ; + + ; ; + + + + + o o o o o o o X   X         o > > > > > > >     > > >     > >                                   ",
"; ; + + ; + ; ; ; ; ; ; + ; O + o o o o o o X X           o o >   > > @     >   > > >                                           "
};
